# xmcd
#
# Track frame offsets:
#	150
#	15220
#	31562
#	45197
#	59072
#	74092
#	88667
#	101622
#	115125
#	128770
#	142342
#	157840
#	171017
#	184512
#	200730
#	214252
#
# Disc length: 3047 seconds
#
# Revision: 2
# Processed by: cddbd v1.5.2PL0 Copyright (c) Steve Scherf et al.
# Submitted via: audiograbber 1.83.01
#
DISCID=da0be510
DTITLE=Mara Kayser - Via Mala
DYEAR=2000
DGENRE=Schlager
TTITLE0=Via Mala
TTITLE1=Kopfüber in die Zärtlichkeit
TTITLE2=Dieses Stückchen Heimaterde
TTITLE3=Es ist nicht alles Gold was glänzt
TTITLE4=Laß dir doch Zeit
TTITLE5=Auf einmal geht die Sonne auf
TTITLE6=Ein Küßchen in Ehren
TTITLE7=Ein Kleines Vergißmeinnicht
TTITLE8=Irgendwann kommt auch das Glück
TTITLE9=Ich zünd´ für dich eine Kerze an
TTITLE10=Herz aus Gold
TTITLE11=Wenn der Mond die Sterne zählt
TTITLE12=Tuba-Boogie
TTITLE13=Ein kleines Feuer
TTITLE14=Ein stückchen blauer Himmel
TTITLE15=Manchmal
EXTD=
EXTT0=
EXTT1=
EXTT2=
EXTT3=
EXTT4=
EXTT5=
EXTT6=
EXTT7=
EXTT8=
EXTT9=
EXTT10=
EXTT11=
EXTT12=
EXTT13=
EXTT14=
EXTT15=
PLAYORDER=
